# Made in Blockbench 4.12.3
mtllib materials.mtl

o cube
v 0.375 1 0.375
v 0.375 1 -0.375
v 0.375 1 0.375
v 0.375 1 -0.375
v -0.375 1 -0.375
v -0.375 1 0.375
v -0.375 1 -0.375
v -0.375 1 0.375
vt 0.125 1
vt 0.125 0.125
vt 0 0.125
vt 0 1
vt 0.125 1
vt 0.125 0.125
vt 0 0.125
vt 0 1
vt 0.125 1
vt 0.125 0.125
vt 0 0.125
vt 0 1
vt 0 0.0625
vt 0 0.9375
vt 0.125 0.9375
vt 0.125 0.0625
vt 0.875 0.125
vt 0.125 0.125
vt 0.125 0.875
vt 0.875 0.875
vt 0.0625 0.9375
vt 0.9375 0.9375
vt 0.9375 0.0625
vt 0.0625 0.0625
vn 0 0 -1
vn 1 0 0
vn 0 0 1
vn -1 0 0
vn 0 1 0
vn 0 -1 0
usemtl m_74b9d006-cbd5-9454-b52c-a1d08bc36628
f 4/4/1 7/3/1 5/2/1 2/1/1
f 3/8/2 4/7/2 2/6/2 1/5/2
f 8/12/3 3/11/3 1/10/3 6/9/3
f 7/16/4 8/15/4 6/14/4 5/13/4
usemtl m_6c788402-5c45-e315-5f11-7a8f506b3dea
f 6/20/5 1/19/5 2/18/5 5/17/5
usemtl m_74b9d006-cbd5-9454-b52c-a1d08bc36628
f 7/24/6 4/23/6 3/22/6 8/21/6